<?xml version="1.0" standalone="no"?>
<!DOCTYPE svg PUBLIC "-//W3C//DTD SVG 20010904//EN"
 "http://www.w3.org/TR/2001/REC-SVG-20010904/DTD/svg10.dtd">
<svg version="1.0" xmlns="http://www.w3.org/2000/svg"
 width="75.000000pt" height="73.000000pt" viewBox="0 0 75.000000 73.000000"
 preserveAspectRatio="xMidYMid meet">
<metadata>
Created by potrace 1.16, written by Peter Selinger 2001-2019
</metadata>
<g transform="translate(0.000000,73.000000) scale(0.033333,-0.032444)"
fill="#000000" stroke="none">
<path d="M629 2123 c-36 -37 -81 -92 -98 -121 -18 -28 -37 -50 -41 -47 -24 15
-138 -166 -195 -309 -36 -89 -85 -305 -85 -375 l0 -41 -37 19 c-21 11 -52 34
-70 50 -18 17 -34 31 -36 31 -3 0 -7 -17 -11 -39 -9 -57 14 -120 78 -211 l56
-80 -76 0 -76 0 27 -37 c48 -66 108 -123 177 -170 l67 -46 -19 -27 c-11 -15
-24 -39 -30 -54 l-10 -26 61 0 c106 0 181 -48 264 -171 90 -134 168 -243 201
-282 115 -137 238 -147 354 -28 30 31 101 125 158 209 151 222 211 273 332
275 55 2 59 3 54 22 -4 11 -17 34 -30 52 l-24 31 43 26 c57 32 140 108 190
171 l39 50 -33 7 c-19 4 -51 4 -71 1 -21 -3 -38 -3 -38 0 0 4 25 42 55 86 60
90 80 145 70 202 l-7 38 -56 -44 c-73 -57 -92 -58 -92 -6 0 57 -36 236 -64
319 -48 141 -181 367 -211 358 -5 -1 -27 22 -47 53 -20 31 -65 85 -99 121
l-63 64 -21 -87 c-16 -67 -31 -100 -63 -144 -129 -176 -147 -209 -166 -295
-11 -47 -33 -33 -46 28 -11 53 -34 91 -168 280 -29 42 -39 70 -68 182 l-9 34
-66 -69z m139 -267 c72 -86 100 -142 110 -223 l7 -58 81 -3 81 -3 6 53 c11 89
34 140 102 222 65 77 115 161 115 192 0 8 6 14 13 12 21 -8 107 -121 136 -182
16 -32 31 -52 33 -45 7 21 83 -103 118 -192 47 -122 69 -231 76 -376 4 -73 11
-133 16 -133 4 0 34 14 66 32 31 18 52 26 46 18 -106 -143 -134 -180 -153
-209 l-24 -33 89 6 89 7 -40 -37 c-60 -55 -151 -94 -224 -97 -33 -1 -61 -5
-61 -9 0 -3 21 -25 48 -49 26 -23 43 -43 37 -45 -89 -33 -176 -121 -307 -309
-85 -122 -154 -203 -144 -169 11 36 -26 58 -103 62 -80 5 -131 -15 -131 -50 0
-21 -2 -20 -31 8 -17 16 -69 85 -117 152 -111 160 -199 255 -263 284 l-49 23
46 46 46 46 -66 8 c-78 8 -166 49 -215 99 l-35 36 82 -7 c45 -3 82 -3 82 1 0
4 -20 33 -43 64 -24 32 -66 86 -93 122 l-49 65 58 -33 c31 -17 60 -32 65 -32
4 0 13 69 20 153 13 170 40 283 98 407 44 93 85 155 94 140 4 -6 21 18 39 54
18 36 55 91 83 121 l51 56 26 -61 c14 -33 54 -94 89 -134z"/>
<path d="M590 1823 c-115 -131 -209 -364 -225 -558 -6 -80 -1 -73 44 60 l28
80 7 -53 c4 -28 11 -52 16 -52 4 0 33 22 63 50 49 44 87 104 114 179 9 22 11
19 32 -38 13 -34 27 -64 31 -66 12 -8 23 139 17 211 -7 71 -56 225 -73 231 -6
2 -31 -18 -54 -44z"/>
<path d="M1260 1813 c-36 -96 -52 -199 -45 -287 10 -114 14 -118 46 -40 21 55
29 65 34 49 25 -73 40 -103 68 -138 30 -39 102 -97 119 -97 4 0 8 26 9 58 l0
57 35 -100 c20 -55 39 -103 43 -108 9 -9 -4 111 -18 176 -25 110 -74 238 -121
317 -46 77 -123 170 -141 170 -4 0 -17 -26 -29 -57z"/>
<path d="M505 1034 c-25 -27 -34 -51 -15 -39 6 4 10 -11 10 -38 0 -93 83 -153
171 -122 l43 15 39 -37 c49 -48 64 -78 81 -156 l12 -62 8 57 c9 67 -20 190
-59 248 -37 57 -97 111 -150 136 -67 32 -109 31 -140 -2z"/>
<path d="M1293 1041 c-49 -23 -124 -89 -153 -135 -34 -57 -60 -156 -60 -236 0
-52 3 -70 10 -60 5 8 10 26 10 40 0 52 22 101 69 152 l48 52 41 -17 c36 -15
48 -15 83 -4 60 18 89 57 89 118 0 31 4 48 10 44 17 -11 11 11 -11 39 -25 32
-74 35 -136 7z"/>
</g>
</svg>
