<?xml version="1.0" standalone="no"?>
<!DOCTYPE svg PUBLIC "-//W3C//DTD SVG 20010904//EN"
 "http://www.w3.org/TR/2001/REC-SVG-20010904/DTD/svg10.dtd">
<svg version="1.0" xmlns="http://www.w3.org/2000/svg"
 width="50.000000pt" height="50.000000pt" viewBox="0 0 512.000000 512.000000"
 preserveAspectRatio="xMidYMid meet">
<metadata>
Created by potrace 1.16, written by Peter Selinger 2001-2019
</metadata>
<g transform="translate(0.000000,512.000000) scale(0.100000,-0.100000)"
fill="#000000" stroke="none">
<path d="M2218 4860 c-518 -81 -965 -312 -1328 -687 -180 -185 -304 -361 -415
-588 -164 -335 -235 -643 -235 -1020 0 -209 8 -298 46 -483 67 -333 228 -681
445 -963 63 -81 89 -99 145 -99 71 0 124 51 124 120 0 39 -11 60 -70 135 -223
283 -373 638 -424 1003 -20 143 -21 422 -1 560 145 1020 1005 1783 2023 1793
160 2 250 -14 387 -68 136 -54 220 -108 321 -206 158 -154 246 -317 285 -526
23 -127 24 -199 3 -322 -50 -297 -236 -557 -504 -707 -30 -17 -103 -47 -162
-67 -91 -30 -129 -37 -250 -45 -205 -14 -295 -27 -395 -56 -377 -109 -688
-408 -813 -782 -50 -151 -63 -246 -57 -432 3 -135 9 -183 30 -263 116 -440
445 -768 886 -884 80 -21 126 -26 279 -30 111 -4 220 -1 280 6 529 65 983 279
1355 641 202 195 338 380 462 625 168 330 245 658 245 1037 0 285 -33 495
-117 748 -160 482 -485 906 -915 1193 -270 180 -540 291 -868 354 -119 23
-165 26 -385 29 -210 3 -270 0 -377 -16z m430 -3249 c67 -34 102 -93 102 -171
0 -111 -79 -190 -190 -190 -111 0 -190 79 -190 190 0 111 77 189 188 190 33 0
67 -7 90 -19z"/>
<path d="M2453 3874 c-62 -37 -93 -95 -93 -174 0 -123 77 -200 200 -200 123 0
200 77 200 200 0 123 -77 200 -201 200 -51 0 -73 -5 -106 -26z"/>
</g>
</svg>