<?xml version="1.0" standalone="no"?>
<!DOCTYPE svg PUBLIC "-//W3C//DTD SVG 20010904//EN"
 "http://www.w3.org/TR/2001/REC-SVG-20010904/DTD/svg10.dtd">
<svg version="1.0" xmlns="http://www.w3.org/2000/svg"
 width="275.000000pt" height="183.000000pt" viewBox="0 0 275.000000 183.000000"
 preserveAspectRatio="xMidYMid meet">
<metadata>
Created by potrace 1.16, written by Peter Selinger 2001-2019
</metadata>
<g transform="translate(0.000000,183.000000) scale(0.100000,-0.100000)"
fill="#000000" stroke="none">
<path d="M2159 1595 c-1 -3 -2 -17 -4 -32 -1 -16 -5 -41 -10 -57 -6 -23 -5
-27 5 -21 9 6 11 4 5 -5 -6 -10 -10 -10 -20 3 -10 14 -14 10 -30 -26 -11 -23
-20 -53 -22 -67 -1 -14 7 -1 18 28 26 67 34 63 12 -6 -14 -42 -21 -52 -45 -57
-38 -9 -36 -26 2 -18 20 3 30 1 30 -6 0 -8 5 -9 19 -1 25 13 34 13 26 0 -8
-13 28 0 36 13 4 5 12 6 18 2 9 -5 9 -11 -1 -23 -7 -9 0 -7 16 6 31 24 55 20
34 -6 -11 -13 -10 -14 7 -5 22 11 101 11 126 -1 13 -6 11 11 -12 100 -37 141
-39 146 -32 94 3 -31 2 -42 -5 -35 -6 6 -13 33 -17 60 -5 36 -4 46 4 35 9 -12
11 -11 11 8 0 21 -3 22 -85 22 -47 0 -86 -2 -86 -5z"/>
<path d="M2620 1515 c5 -23 -1 -35 -17 -36 -11 0 -13 -3 -5 -6 17 -7 15 -33
-3 -33 -13 0 -15 -62 -17 -471 l-3 -472 -85 0 -85 -1 75 -3 75 -4 -58 -20
c-32 -11 -63 -16 -70 -13 -7 4 -9 4 -5 -1 4 -4 3 -15 -2 -24 -5 -10 -5 -23 1
-32 5 -7 9 -11 9 -7 0 3 24 0 53 -8 56 -15 145 -18 221 -8 45 7 46 7 46 44 0
34 -3 38 -37 48 -21 6 -47 13 -58 16 -11 2 7 5 40 7 l60 2 -65 6 -64 6 -3 460
c-1 292 2 474 8 499 8 28 7 42 -1 50 -6 6 -11 7 -10 1z"/>
<path d="M405 1456 l-40 -12 -3 -103 -3 -104 32 7 c17 3 37 6 43 6 8 0 11 34
11 110 0 60 0 110 0 109 0 0 -18 -6 -40 -13z"/>
<path d="M530 1068 c-1 -2 -2 -23 -4 -48 -2 -25 -7 -68 -10 -96 l-8 -51 39 -8
c54 -12 63 -11 108 1 25 8 39 17 36 25 -14 52 -29 152 -24 164 4 12 -8 15 -66
15 -39 0 -71 -1 -71 -2z"/>
<path d="M395 949 c-22 -4 -98 -17 -170 -29 -72 -11 -141 -23 -155 -26 -25 -4
-25 -6 -25 -108 l0 -103 40 13 c22 8 49 18 60 23 21 9 83 30 153 51 23 7 42
16 42 20 0 4 24 12 53 19 l52 13 -1 65 c-1 35 -4 65 -5 67 -2 1 -22 -1 -44 -5z
m25 -64 l0 -42 -87 -27 c-49 -14 -94 -26 -100 -26 -9 0 -13 18 -13 54 0 61 -4
58 105 71 28 3 51 10 53 15 2 4 12 6 22 3 16 -4 20 -14 20 -48z m-232 -81 c-3
-35 -6 -37 -65 -59 l-63 -22 0 77 0 78 63 9 62 8 3 -27 c2 -15 2 -44 0 -64z"/>
<path d="M894 898 c-9 -18 -19 -63 -22 -100 -4 -62 -3 -66 15 -62 10 3 30 -4
46 -16 29 -23 37 -46 12 -36 -8 3 -15 1 -15 -4 0 -19 -41 -10 -74 15 -18 14
-36 22 -39 18 -4 -3 -7 1 -7 10 0 9 -4 18 -9 21 -5 4 -7 -3 -4 -14 4 -15 0
-20 -14 -20 -10 0 -23 4 -29 10 -6 6 -9 0 -8 -18 1 -15 -3 -33 -8 -39 -6 -7
-8 -20 -4 -28 3 -8 0 -15 -7 -15 -7 0 -74 -1 -149 -2 l-137 -1 4 -71 c3 -39 2
-62 -1 -51 -3 11 -10 25 -16 30 -10 11 -4 -13 13 -50 5 -11 10 -65 11 -119 l3
-99 134 2 c125 2 134 1 148 -18 12 -18 25 -21 98 -21 50 0 85 4 87 11 4 12
404 11 773 -3 138 -5 288 -10 334 -11 l83 -2 -1 115 c-1 63 -4 162 -7 220 -5
95 -8 108 -32 133 -29 30 -67 35 -98 12 -12 -9 -14 -14 -6 -15 7 0 10 -5 7
-10 -4 -7 -13 -4 -23 8 -10 10 -22 17 -29 15 -6 -2 -14 1 -18 6 -7 13 35 31
71 31 19 0 24 5 23 23 -1 16 -2 18 -6 5 -3 -13 -15 -18 -42 -18 -55 0 -80 -31
-89 -110 l-7 -62 -410 2 c-225 1 -421 2 -435 3 -23 2 -25 6 -26 55 -2 63 -25
100 -71 116 -31 11 -32 12 -28 67 2 31 10 71 19 88 9 17 14 31 12 31 -3 0 -13
-15 -22 -32z m-29 -224 c8 -11 14 -26 14 -34 0 -8 -7 -3 -15 13 -8 15 -19 27
-23 27 -14 0 -6 -30 9 -40 12 -7 15 -48 15 -204 l0 -196 -52 0 -52 0 0 178
c-1 97 -4 191 -7 209 -11 62 73 97 111 47z m1136 17 c-12 -8 -9 -11 12 -16 16
-4 24 -12 20 -19 -3 -6 3 -3 14 7 16 14 23 15 29 6 4 -7 3 -10 -4 -5 -17 10
-23 -10 -7 -24 12 -10 15 -47 15 -211 l0 -199 -60 0 -60 0 0 200 c0 134 3 200
11 200 5 0 8 4 4 9 -3 5 0 13 6 16 5 4 8 13 5 20 -5 15 2 25 18 25 6 0 4 -4
-3 -9z m-757 -145 c-4 -10 1 -14 14 -13 12 0 20 6 19 12 -2 11 201 20 239 10
12 -2 25 -12 28 -21 6 -16 -13 -17 -241 -11 -136 4 -277 7 -313 8 -63 1 -64 1
-35 14 20 10 72 14 162 15 111 0 131 -2 127 -14z m326 -88 c0 -16 -6 -31 -14
-34 -8 -3 -82 -1 -166 3 -156 9 -184 19 -158 51 9 10 47 13 175 11 l163 -3 0
-28z m360 7 c0 -28 -51 -37 -187 -33 -72 2 -135 6 -138 10 -4 4 -5 14 -2 22 9
22 327 23 327 1z m-535 -69 c17 -3 60 -2 98 3 45 5 67 4 67 -3 0 -7 3 -7 8 0
5 8 30 8 87 2 44 -5 121 -7 170 -3 l90 6 -3 -71 -4 -71 -491 3 -492 3 -3 70
-3 70 223 -2 c123 -1 237 -4 253 -7z"/>
<path d="M1198 28 c-103 -3 -195 -11 -205 -17 -16 -9 -15 -10 7 -10 14 0 48 4
77 8 29 4 50 4 47 -1 -3 -4 13 -8 35 -8 23 0 41 5 41 10 0 6 14 10 31 10 20 0
28 -4 23 -11 -5 -8 37 -10 157 -5 90 3 171 7 179 7 8 1 47 -1 85 -5 53 -6 66
-5 53 4 -10 6 -60 12 -112 13 -52 1 -93 4 -91 7 4 7 -106 6 -327 -2z"/>
</g>
</svg>
